<svg width="28" height="24" viewBox="0 0 28 24" xmlns="http://www.w3.org/2000/svg">
<path d="M25.8281 3H6.04688L5.625 0.9375C5.53125 0.421875 5.0625 0 4.54688 0H0.5625C0.234375 0 0 0.28125 0 0.5625V0.9375C0 1.26562 0.234375 1.5 0.5625 1.5H4.21875L7.5 18.9844C7.03125 19.5469 6.75 20.25 6.75 21C6.75 22.6875 8.0625 24 9.75 24C11.3906 24 12.75 22.6875 12.75 21C12.75 20.5781 12.5625 19.9219 12.3281 19.5H19.125C18.8906 19.9219 18.75 20.5781 18.75 21C18.75 22.6875 20.0625 24 21.75 24C23.3906 24 24.75 22.6875 24.75 21C24.75 20.2031 24.375 19.4062 23.8125 18.8906C23.7188 18.375 23.25 18 22.7344 18H8.85938L8.29688 15H23.8125C24.375 15 24.7969 14.6719 24.9375 14.1094L26.9531 4.35938C27.0938 3.65625 26.5781 3 25.8281 3ZM11.25 21C11.25 21.8438 10.5469 22.5 9.75 22.5C8.90625 22.5 8.25 21.8438 8.25 21C8.25 20.2031 8.90625 19.5 9.75 19.5C10.5469 19.5 11.25 20.2031 11.25 21ZM21.75 22.5C20.9062 22.5 20.25 21.8438 20.25 21C20.25 20.2031 20.9062 19.5 21.75 19.5C22.5469 19.5 23.25 20.2031 23.25 21C23.25 21.8438 22.5469 22.5 21.75 22.5ZM23.5312 13.5H8.01562L6.32812 4.5H25.4062L23.5312 13.5Z"/>
</svg>
